<svg width="1200" height="630" viewBox="0 0 1200 630" fill="none" xmlns="http://www.w3.org/2000/svg">
  <!-- Background gradient -->
  <defs>
    <linearGradient id="bg-gradient" x1="0%" y1="0%" x2="100%" y2="100%">
      <stop offset="0%" style="stop-color:#fdf2f8;stop-opacity:1" />
      <stop offset="50%" style="stop-color:#fce7f3;stop-opacity:1" />
      <stop offset="100%" style="stop-color:#fbcfe8;stop-opacity:1" />
    </linearGradient>
    <linearGradient id="text-gradient" x1="0%" y1="0%" x2="100%" y2="0%">
      <stop offset="0%" style="stop-color:#ec4899;stop-opacity:1" />
      <stop offset="100%" style="stop-color:#be185d;stop-opacity:1" />
    </linearGradient>
  </defs>

  <rect width="1200" height="630" fill="url(#bg-gradient)"/>

  <!-- Decorative circles -->
  <circle cx="100" cy="100" r="150" fill="#f9a8d4" opacity="0.2"/>
  <circle cx="1100" cy="530" r="200" fill="#f472b6" opacity="0.15"/>
  <circle cx="950" cy="150" r="120" fill="#ec4899" opacity="0.1"/>

  <!-- Text content -->
  <text x="600" y="250" font-family="Georgia, serif" font-size="72" font-weight="bold" fill="url(#text-gradient)" text-anchor="middle">
    Love, Violeta Rose
  </text>

  <text x="600" y="320" font-family="Arial, sans-serif" font-size="32" fill="#831843" text-anchor="middle" opacity="0.9">
    Professional Wedding &amp; Event Photography
  </text>

  <text x="600" y="380" font-family="Arial, sans-serif" font-size="24" fill="#9d174d" text-anchor="middle" opacity="0.7">
    Capturing your most precious moments
  </text>

  <!-- Camera icon -->
  <g transform="translate(540, 420)">
    <circle cx="60" cy="30" r="50" fill="#ec4899" opacity="0.1"/>
    <path d="M40 20 L45 15 L75 15 L80 20 L90 20 C92.2091 20 94 21.7909 94 24 L94 44 C94 46.2091 92.2091 48 90 48 L30 48 C27.7909 48 26 46.2091 26 44 L26 24 C26 21.7909 27.7909 20 30 20 L40 20 Z" fill="none" stroke="#ec4899" stroke-width="3"/>
    <circle cx="60" cy="34" r="10" fill="none" stroke="#ec4899" stroke-width="3"/>
  </g>

  <!-- Bottom text -->
  <text x="600" y="550" font-family="Arial, sans-serif" font-size="20" fill="#be185d" text-anchor="middle">
    lovevioletarose.com
  </text>
</svg>
